<svg xmlns="http://www.w3.org/2000/svg" viewBox="0 0 100 100" fill="none">
  <defs>
    <linearGradient id="logoGrad" x1="0%" y1="0%" x2="100%" y2="100%">
      <stop offset="0%" stop-color="#ff2d55"/>
      <stop offset="100%" stop-color="#863bff"/>
    </linearGradient>
  </defs>
  <rect x="10" y="10" width="80" height="80" rx="22" fill="url(#logoGrad)"/>
  <path d="M35 48V25c0-2 1.5-3.5 3.5-3.5h23c2 0 3.5 1.5 3.5 3.5v23c-3 0-5 2-5 5s2 5 5 5v12c0 2-1.5 3.5-3.5 3.5h-23c-2 0-3.5-1.5-3.5-3.5v-12c3 0 5-2 5-5s-2-5-5-5z" fill="#ffffff"/>
  <circle cx="50" cy="35" r="4.5" fill="url(#logoGrad)"/>
  <line x1="43" y1="53" x2="57" y2="53" stroke="url(#logoGrad)" stroke-width="2.5" stroke-linecap="round" stroke-dasharray="3 3"/>
</svg>